<svg width="260" height="261" viewBox="0 0 260 261" fill="none" xmlns="http://www.w3.org/2000/svg">
<rect width="259.835" height="260.24" fill="black"/>
<path d="M46.476 115L52.902 128.188L59.412 115H66.93L56.304 134.656V144.82H49.458V134.572L39 115H46.476Z" fill="white"/>
<path d="M75.8041 145.24C73.2841 145.24 71.1421 144.708 69.3781 143.644C67.6421 142.58 66.3121 141.18 65.3881 139.444C64.4641 137.708 64.0021 135.832 64.0021 133.816C64.0021 131.772 64.4641 129.882 65.3881 128.146C66.3121 126.41 67.6561 125.01 69.4201 123.946C71.1841 122.882 73.3121 122.35 75.8041 122.35C78.2961 122.35 80.4241 122.882 82.1881 123.946C83.9521 125.01 85.2961 126.41 86.2201 128.146C87.1441 129.882 87.6061 131.772 87.6061 133.816C87.6061 135.832 87.1441 137.708 86.2201 139.444C85.2961 141.18 83.9521 142.58 82.1881 143.644C80.4241 144.708 78.2961 145.24 75.8041 145.24ZM70.8901 133.816C70.8901 135.524 71.3521 136.91 72.2761 137.974C73.2281 139.038 74.4041 139.57 75.8041 139.57C77.1761 139.57 78.3241 139.038 79.2481 137.974C80.2001 136.91 80.6761 135.524 80.6761 133.816C80.6761 132.108 80.2001 130.722 79.2481 129.658C78.3241 128.594 77.1761 128.062 75.8041 128.062C74.4041 128.062 73.2281 128.594 72.2761 129.658C71.3521 130.722 70.8901 132.108 70.8901 133.816Z" fill="white"/>
<path d="M90.7289 136.882V122.77H97.4489V135.412C97.4489 138.184 98.4709 139.57 100.515 139.57C101.411 139.57 102.279 139.332 103.119 138.856C103.959 138.352 104.701 137.526 105.345 136.378V122.77H112.065V137.344C112.065 138.016 112.163 138.492 112.359 138.772C112.583 139.052 112.961 139.206 113.493 139.234V144.82C112.849 144.932 112.303 145.016 111.855 145.072C111.407 145.128 111.001 145.156 110.637 145.156C108.229 145.156 106.857 144.218 106.521 142.342L106.395 140.998C105.387 142.454 104.127 143.532 102.615 144.232C101.131 144.904 99.4649 145.24 97.6169 145.24C95.3769 145.24 93.6689 144.526 92.4929 143.098C91.3169 141.67 90.7289 139.598 90.7289 136.882Z" fill="white"/>
<path d="M131.257 128.524C129.633 128.552 128.163 128.818 126.847 129.322C125.531 129.826 124.579 130.582 123.991 131.59V144.82H117.271V122.77H123.445V127.222C124.201 125.738 125.181 124.576 126.385 123.736C127.589 122.896 128.849 122.462 130.165 122.434C130.725 122.434 131.089 122.448 131.257 122.476V128.524Z" fill="white"/>
<path d="M155.92 121.048H146.848V144.82H139.96V121.048H130.846V115H155.92V121.048Z" fill="white"/>
<path d="M165.382 145.24C162.862 145.24 160.72 144.708 158.956 143.644C157.22 142.58 155.89 141.18 154.966 139.444C154.042 137.708 153.58 135.832 153.58 133.816C153.58 131.772 154.042 129.882 154.966 128.146C155.89 126.41 157.234 125.01 158.998 123.946C160.762 122.882 162.89 122.35 165.382 122.35C167.874 122.35 170.002 122.882 171.766 123.946C173.53 125.01 174.874 126.41 175.798 128.146C176.722 129.882 177.184 131.772 177.184 133.816C177.184 135.832 176.722 137.708 175.798 139.444C174.874 141.18 173.53 142.58 171.766 143.644C170.002 144.708 167.874 145.24 165.382 145.24ZM160.468 133.816C160.468 135.524 160.93 136.91 161.854 137.974C162.806 139.038 163.982 139.57 165.382 139.57C166.754 139.57 167.902 139.038 168.826 137.974C169.778 136.91 170.254 135.524 170.254 133.816C170.254 132.108 169.778 130.722 168.826 129.658C167.902 128.594 166.754 128.062 165.382 128.062C163.982 128.062 162.806 128.594 161.854 129.658C160.93 130.722 160.468 132.108 160.468 133.816Z" fill="white"/>
<path d="M180.307 136.882V122.77H187.027V135.412C187.027 138.184 188.049 139.57 190.093 139.57C190.989 139.57 191.857 139.332 192.697 138.856C193.537 138.352 194.279 137.526 194.923 136.378V122.77H201.643V137.344C201.643 138.016 201.741 138.492 201.937 138.772C202.161 139.052 202.539 139.206 203.071 139.234V144.82C202.427 144.932 201.881 145.016 201.433 145.072C200.985 145.128 200.579 145.156 200.215 145.156C197.807 145.156 196.435 144.218 196.099 142.342L195.973 140.998C194.965 142.454 193.705 143.532 192.193 144.232C190.709 144.904 189.043 145.24 187.195 145.24C184.955 145.24 183.247 144.526 182.071 143.098C180.895 141.67 180.307 139.598 180.307 136.882Z" fill="white"/>
<path d="M220.835 128.524C219.211 128.552 217.741 128.818 216.425 129.322C215.109 129.826 214.157 130.582 213.569 131.59V144.82H206.849V122.77H213.023V127.222C213.779 125.738 214.759 124.576 215.963 123.736C217.167 122.896 218.427 122.462 219.743 122.434C220.303 122.434 220.667 122.448 220.835 122.476V128.524Z" fill="white"/>
</svg>
